<svg width="40" height="40" viewBox="0 0 40 40" fill="none" xmlns="http://www.w3.org/2000/svg">
  <defs>
    <linearGradient id="simpleGradient" x1="0%" y1="0%" x2="100%" y2="100%">
      <stop offset="0%" style="stop-color:#2563eb;stop-opacity:1" />
      <stop offset="100%" style="stop-color:#9333ea;stop-opacity:1" />
    </linearGradient>
  </defs>
  
  <!-- Rounded Square Background -->
  <rect x="2" y="2" width="36" height="36" rx="8" fill="url(#simpleGradient)"/>
  
  <!-- Stylized "D" with Analytics Bar -->
  <path d="M 12 10 L 12 30 L 22 30 Q 26 30 26 26 L 26 20 Q 26 18 24 17 Q 26 16 26 14 L 26 10 Q 26 10 22 10 Z" fill="white"/>
  <path d="M 14 12 L 14 28 L 22 28 Q 24.5 28 24.5 25.5 L 24.5 20 Q 24.5 18.5 23 18 Q 24.5 17.5 24.5 15.5 L 24.5 12 Q 24.5 12 22 12 Z" fill="url(#simpleGradient)"/>
  
  <!-- Analytics bar accent -->
  <rect x="27" y="18" width="2" height="4" fill="white" opacity="0.8" rx="0.5"/>
  <rect x="30" y="16" width="2" height="6" fill="white" opacity="0.8" rx="0.5"/>
  <rect x="33" y="20" width="2" height="2" fill="white" opacity="0.8" rx="0.5"/>
</svg>
